# xmcd
#
# Track frame offsets: 
#        150
#        16145
#        29558
#        50824
#
# Disc length: 888 seconds
#
# Revision: 0
# Processed by: cddbd v1.5.2PL0 Copyright (c) Steve Scherf et al.
# Submitted via: ExactAudioCopy v0.95b4
#
DISCID=2e037604
DTITLE=Dirty Diamond - 1980 WHORE EP
DYEAR=2009
DGENRE=Pop
TTITLE0=I'll Pee!
TTITLE1=I Love Glory Holes
TTITLE2=She Cries When I Fist Her
TTITLE3=I'll Pee! (Radio Edit)
EXTD=
EXTT0=
EXTT1=
EXTT2=
EXTT3=
PLAYORDER=
